ISO-10303-21;
HEADER;
/* Generated by software containing ST-Developer
 * from STEP Tools, Inc. (www.steptools.com) 
 */
/* OPTION: using custom renumber hook */

FILE_DESCRIPTION(
/* description */ ('STEP AP242 Edition 2',
'CAx-IF Rec.Pracs.---Representation and Presentation of Product Manufa
cturing Information (PMI)---4.0---2014-10-13',
'CAx-IF Rec.Pracs.---3D Tessellated Geometry---0.4---2014-09-14','2;1',
'CAx-IF Rec.Pracs.---User Defined Attributes---1.5---2016-08-15'),
/* implementation_level */ '2;1');

FILE_NAME(
/* name */ 'Part Studio 1',
/* time_stamp */ '2026-08-30T15:35:12Z',
/* author */ (''),
/* organization */ (''),
/* preprocessor_version */ 'ST-DEVELOPER v20',
/* originating_system */ 'ONSHAPE BY PTC INC, 1.220',
/* authorisation */ '  ');

FILE_SCHEMA (('AP242_MANAGED_MODEL_BASED_3D_ENGINEERING_MIM_LF { 1 0 10303 442 3 1 4 }'));
ENDSEC;

DATA;
#10=SHAPE_REPRESENTATION_RELATIONSHIP('','',#178,#11);
#11=ADVANCED_BREP_SHAPE_REPRESENTATION('',(#176),#276);
#12=ORIENTED_EDGE('',*,*,#54,.F.);
#13=ORIENTED_EDGE('',*,*,#55,.T.);
#14=ORIENTED_EDGE('',*,*,#56,.T.);
#15=ORIENTED_EDGE('',*,*,#57,.T.);
#16=ORIENTED_EDGE('',*,*,#58,.F.);
#17=ORIENTED_EDGE('',*,*,#59,.F.);
#18=ORIENTED_EDGE('',*,*,#60,.T.);
#19=ORIENTED_EDGE('',*,*,#61,.T.);
#20=ORIENTED_EDGE('',*,*,#62,.T.);
#21=ORIENTED_EDGE('',*,*,#63,.F.);
#22=ORIENTED_EDGE('',*,*,#56,.F.);
#23=ORIENTED_EDGE('',*,*,#64,.F.);
#24=ORIENTED_EDGE('',*,*,#65,.F.);
#25=ORIENTED_EDGE('',*,*,#66,.F.);
#26=ORIENTED_EDGE('',*,*,#59,.T.);
#27=ORIENTED_EDGE('',*,*,#67,.T.);
#28=ORIENTED_EDGE('',*,*,#68,.F.);
#29=ORIENTED_EDGE('',*,*,#57,.F.);
#30=ORIENTED_EDGE('',*,*,#63,.T.);
#31=ORIENTED_EDGE('',*,*,#69,.F.);
#32=ORIENTED_EDGE('',*,*,#61,.F.);
#33=ORIENTED_EDGE('',*,*,#70,.T.);
#34=ORIENTED_EDGE('',*,*,#71,.T.);
#35=ORIENTED_EDGE('',*,*,#72,.T.);
#36=ORIENTED_EDGE('',*,*,#54,.T.);
#37=ORIENTED_EDGE('',*,*,#68,.T.);
#38=ORIENTED_EDGE('',*,*,#73,.F.);
#39=ORIENTED_EDGE('',*,*,#70,.F.);
#40=ORIENTED_EDGE('',*,*,#60,.F.);
#41=ORIENTED_EDGE('',*,*,#66,.T.);
#42=ORIENTED_EDGE('',*,*,#58,.T.);
#43=ORIENTED_EDGE('',*,*,#69,.T.);
#44=ORIENTED_EDGE('',*,*,#67,.F.);
#45=ORIENTED_EDGE('',*,*,#62,.F.);
#46=ORIENTED_EDGE('',*,*,#71,.F.);
#47=ORIENTED_EDGE('',*,*,#73,.T.);
#48=ORIENTED_EDGE('',*,*,#65,.T.);
#49=ORIENTED_EDGE('',*,*,#74,.F.);
#50=ORIENTED_EDGE('',*,*,#72,.F.);
#51=ORIENTED_EDGE('',*,*,#74,.T.);
#52=ORIENTED_EDGE('',*,*,#64,.T.);
#53=ORIENTED_EDGE('',*,*,#55,.F.);
#54=EDGE_CURVE('',#75,#76,#89,.T.);
#55=EDGE_CURVE('',#75,#77,#90,.T.);
#56=EDGE_CURVE('',#77,#78,#91,.T.);
#57=EDGE_CURVE('',#78,#76,#92,.T.);
#58=EDGE_CURVE('',#79,#80,#93,.T.);
#59=EDGE_CURVE('',#81,#79,#94,.T.);
#60=EDGE_CURVE('',#81,#82,#95,.T.);
#61=EDGE_CURVE('',#82,#80,#96,.T.);
#62=EDGE_CURVE('',#79,#83,#97,.T.);
#63=EDGE_CURVE('',#78,#83,#98,.T.);
#64=EDGE_CURVE('',#84,#77,#99,.T.);
#65=EDGE_CURVE('',#85,#84,#100,.T.);
#66=EDGE_CURVE('',#81,#85,#101,.T.);
#67=EDGE_CURVE('',#83,#86,#102,.T.);
#68=EDGE_CURVE('',#76,#86,#103,.T.);
#69=EDGE_CURVE('',#80,#86,#104,.T.);
#70=EDGE_CURVE('',#82,#87,#105,.T.);
#71=EDGE_CURVE('',#87,#88,#106,.T.);
#72=EDGE_CURVE('',#88,#75,#107,.T.);
#73=EDGE_CURVE('',#87,#85,#108,.T.);
#74=EDGE_CURVE('',#88,#84,#109,.T.);
#75=VERTEX_POINT('',#233);
#76=VERTEX_POINT('',#234);
#77=VERTEX_POINT('',#236);
#78=VERTEX_POINT('',#238);
#79=VERTEX_POINT('',#242);
#80=VERTEX_POINT('',#243);
#81=VERTEX_POINT('',#245);
#82=VERTEX_POINT('',#247);
#83=VERTEX_POINT('',#251);
#84=VERTEX_POINT('',#254);
#85=VERTEX_POINT('',#256);
#86=VERTEX_POINT('',#260);
#87=VERTEX_POINT('',#265);
#88=VERTEX_POINT('',#267);
#89=LINE('',#232,#110);
#90=LINE('',#235,#111);
#91=LINE('',#237,#112);
#92=LINE('',#239,#113);
#93=LINE('',#241,#114);
#94=LINE('',#244,#115);
#95=LINE('',#246,#116);
#96=LINE('',#248,#117);
#97=LINE('',#250,#118);
#98=LINE('',#252,#119);
#99=LINE('',#253,#120);
#100=LINE('',#255,#121);
#101=LINE('',#257,#122);
#102=LINE('',#259,#123);
#103=LINE('',#261,#124);
#104=LINE('',#263,#125);
#105=LINE('',#264,#126);
#106=LINE('',#266,#127);
#107=LINE('',#268,#128);
#108=LINE('',#270,#129);
#109=LINE('',#273,#130);
#110=VECTOR('',#193,1.);
#111=VECTOR('',#194,1.);
#112=VECTOR('',#195,1.);
#113=VECTOR('',#196,1.);
#114=VECTOR('',#199,1.);
#115=VECTOR('',#200,1.);
#116=VECTOR('',#201,1.);
#117=VECTOR('',#202,1.);
#118=VECTOR('',#205,1.);
#119=VECTOR('',#206,1.);
#120=VECTOR('',#207,1.);
#121=VECTOR('',#208,1.);
#122=VECTOR('',#209,1.);
#123=VECTOR('',#212,1.);
#124=VECTOR('',#213,1.);
#125=VECTOR('',#216,1.);
#126=VECTOR('',#217,1.);
#127=VECTOR('',#218,1.);
#128=VECTOR('',#219,1.);
#129=VECTOR('',#222,1.);
#130=VECTOR('',#227,1.);
#131=EDGE_LOOP('',(#12,#13,#14,#15));
#132=EDGE_LOOP('',(#16,#17,#18,#19));
#133=EDGE_LOOP('',(#20,#21,#22,#23,#24,#25,#26));
#134=EDGE_LOOP('',(#27,#28,#29,#30));
#135=EDGE_LOOP('',(#31,#32,#33,#34,#35,#36,#37));
#136=EDGE_LOOP('',(#38,#39,#40,#41));
#137=EDGE_LOOP('',(#42,#43,#44,#45));
#138=EDGE_LOOP('',(#46,#47,#48,#49));
#139=EDGE_LOOP('',(#50,#51,#52,#53));
#140=FACE_BOUND('',#131,.T.);
#141=FACE_BOUND('',#132,.T.);
#142=FACE_BOUND('',#133,.T.);
#143=FACE_BOUND('',#134,.T.);
#144=FACE_BOUND('',#135,.T.);
#145=FACE_BOUND('',#136,.T.);
#146=FACE_BOUND('',#137,.T.);
#147=FACE_BOUND('',#138,.T.);
#148=FACE_BOUND('',#139,.T.);
#149=PLANE('',#180);
#150=PLANE('',#181);
#151=PLANE('',#182);
#152=PLANE('',#183);
#153=PLANE('',#184);
#154=PLANE('',#185);
#155=PLANE('',#186);
#156=PLANE('',#187);
#157=PLANE('',#188);
#158=ADVANCED_FACE('',(#140),#149,.T.);
#159=ADVANCED_FACE('',(#141),#150,.T.);
#160=ADVANCED_FACE('',(#142),#151,.F.);
#161=ADVANCED_FACE('',(#143),#152,.F.);
#162=ADVANCED_FACE('',(#144),#153,.T.);
#163=ADVANCED_FACE('',(#145),#154,.T.);
#164=ADVANCED_FACE('',(#146),#155,.F.);
#165=ADVANCED_FACE('',(#147),#156,.F.);
#166=ADVANCED_FACE('',(#148),#157,.F.);
#167=CLOSED_SHELL('',(#158,#159,#160,#161,#162,#163,#164,#165,#166));
#168=STYLED_ITEM('',(#169),#176);
#169=PRESENTATION_STYLE_ASSIGNMENT((#170));
#170=SURFACE_STYLE_USAGE(.BOTH.,#171);
#171=SURFACE_SIDE_STYLE('',(#172));
#172=SURFACE_STYLE_FILL_AREA(#173);
#173=FILL_AREA_STYLE('',(#174));
#174=FILL_AREA_STYLE_COLOUR('',#175);
#175=COLOUR_RGB('',0.615686274509804,0.811764705882353,0.929411764705882);
#176=MANIFOLD_SOLID_BREP('Part 1',#167);
#177=SHAPE_DEFINITION_REPRESENTATION(#281,#178);
#178=SHAPE_REPRESENTATION('Part 1',(#179),#276);
#179=AXIS2_PLACEMENT_3D('',#230,#189,#190);
#180=AXIS2_PLACEMENT_3D('',#231,#191,#192);
#181=AXIS2_PLACEMENT_3D('',#240,#197,#198);
#182=AXIS2_PLACEMENT_3D('',#249,#203,#204);
#183=AXIS2_PLACEMENT_3D('',#258,#210,#211);
#184=AXIS2_PLACEMENT_3D('',#262,#214,#215);
#185=AXIS2_PLACEMENT_3D('',#269,#220,#221);
#186=AXIS2_PLACEMENT_3D('',#271,#223,#224);
#187=AXIS2_PLACEMENT_3D('',#272,#225,#226);
#188=AXIS2_PLACEMENT_3D('',#274,#228,#229);
#189=DIRECTION('',(0.,0.,1.));
#190=DIRECTION('',(1.,0.,0.));
#191=DIRECTION('',(0.,1.,0.));
#192=DIRECTION('',(1.,0.,0.));
#193=DIRECTION('',(1.,0.,0.));
#194=DIRECTION('',(0.,0.,1.));
#195=DIRECTION('',(1.,0.,0.));
#196=DIRECTION('',(0.,0.,-1.));
#197=DIRECTION('',(-1.,0.,0.));
#198=DIRECTION('',(0.,1.,0.));
#199=DIRECTION('',(0.,0.,-1.));
#200=DIRECTION('',(0.,-1.,0.));
#201=DIRECTION('',(0.,0.,-1.));
#202=DIRECTION('',(0.,-1.,0.));
#203=DIRECTION('',(0.,0.,-1.));
#204=DIRECTION('',(0.,1.,0.));
#205=DIRECTION('',(1.,0.,0.));
#206=DIRECTION('',(0.,-1.,0.));
#207=DIRECTION('',(0.,-1.,0.));
#208=DIRECTION('',(0.854855155172892,0.518866710894359,0.));
#209=DIRECTION('',(1.,0.,0.));
#210=DIRECTION('',(-1.,0.,0.));
#211=DIRECTION('',(0.,1.,0.));
#212=DIRECTION('',(0.,0.,-1.));
#213=DIRECTION('',(0.,-1.,0.));
#214=DIRECTION('',(0.,0.,-1.));
#215=DIRECTION('',(0.,1.,0.));
#216=DIRECTION('',(1.,0.,0.));
#217=DIRECTION('',(1.,0.,0.));
#218=DIRECTION('',(0.854855155172892,0.518866710894359,0.));
#219=DIRECTION('',(0.,-1.,0.));
#220=DIRECTION('',(0.,1.,0.));
#221=DIRECTION('',(1.,0.,0.));
#222=DIRECTION('',(0.,0.,1.));
#223=DIRECTION('',(0.,1.,0.));
#224=DIRECTION('',(1.,0.,0.));
#225=DIRECTION('',(0.518866710894359,-0.854855155172892,0.));
#226=DIRECTION('',(-0.854855155172892,-0.518866710894359,0.));
#227=DIRECTION('',(0.,0.,1.));
#228=DIRECTION('',(-1.,0.,0.));
#229=DIRECTION('',(0.,1.,0.));
#230=CARTESIAN_POINT('',(0.,0.,0.));
#231=CARTESIAN_POINT('',(0.015,0.002,-0.0075));
#232=CARTESIAN_POINT('',(0.015,0.002,-0.015));
#233=CARTESIAN_POINT('',(0.0190805569291115,0.002,-0.015));
#234=CARTESIAN_POINT('',(0.03,0.002,-0.015));
#235=CARTESIAN_POINT('',(0.0190805569291115,0.002,-0.015002));
#236=CARTESIAN_POINT('',(0.0190805569291115,0.002,0.));
#237=CARTESIAN_POINT('',(0.015,0.002,0.));
#238=CARTESIAN_POINT('',(0.03,0.002,0.));
#239=CARTESIAN_POINT('',(0.03,0.002,-0.0075));
#240=CARTESIAN_POINT('',(0.,0.002,-0.0075));
#241=CARTESIAN_POINT('',(0.,0.,-0.0075));
#242=CARTESIAN_POINT('',(0.,0.,0.));
#243=CARTESIAN_POINT('',(-3.46944695195361E-18,0.,-0.015));
#244=CARTESIAN_POINT('',(0.,0.002,0.));
#245=CARTESIAN_POINT('',(0.,0.002,0.));
#246=CARTESIAN_POINT('',(0.,0.002,-0.0075));
#247=CARTESIAN_POINT('',(-3.46944695195361E-18,0.002,-0.015));
#248=CARTESIAN_POINT('',(-3.46944695195361E-18,0.002,-0.015));
#249=CARTESIAN_POINT('',(0.015,0.002,0.));
#250=CARTESIAN_POINT('',(0.015,0.,0.));
#251=CARTESIAN_POINT('',(0.03,0.,0.));
#252=CARTESIAN_POINT('',(0.03,0.002,0.));
#253=CARTESIAN_POINT('',(0.0190805569291115,0.00499148231372237,0.));
#254=CARTESIAN_POINT('',(0.0190805569291115,0.00798296462744474,0.));
#255=CARTESIAN_POINT('',(0.014151961542666,0.00499148231372237,0.));
#256=CARTESIAN_POINT('',(0.00922336615622044,0.002,0.));
#257=CARTESIAN_POINT('',(0.015,0.002,0.));
#258=CARTESIAN_POINT('',(0.03,0.002,-0.0075));
#259=CARTESIAN_POINT('',(0.03,0.,-0.0075));
#260=CARTESIAN_POINT('',(0.03,0.,-0.015));
#261=CARTESIAN_POINT('',(0.03,0.002,-0.015));
#262=CARTESIAN_POINT('',(0.015,0.002,-0.015));
#263=CARTESIAN_POINT('',(0.015,0.,-0.015));
#264=CARTESIAN_POINT('',(0.015,0.002,-0.015));
#265=CARTESIAN_POINT('',(0.00922336615622044,0.002,-0.015));
#266=CARTESIAN_POINT('',(0.014151961542666,0.00499148231372237,-0.015));
#267=CARTESIAN_POINT('',(0.0190805569291115,0.00798296462744474,-0.015));
#268=CARTESIAN_POINT('',(0.0190805569291115,0.00499148231372237,-0.015));
#269=CARTESIAN_POINT('',(0.015,0.002,-0.0075));
#270=CARTESIAN_POINT('',(0.00922336615622044,0.002,-0.015002));
#271=CARTESIAN_POINT('',(0.015,0.,-0.0075));
#272=CARTESIAN_POINT('',(0.014151961542666,0.00499148231372237,-0.015002));
#273=CARTESIAN_POINT('',(0.0190805569291115,0.00798296462744474,-0.015002));
#274=CARTESIAN_POINT('',(0.0190805569291115,0.00499148231372237,-0.015002));
#275=MECHANICAL_DESIGN_GEOMETRIC_PRESENTATION_REPRESENTATION('',(#168),
#276);
#276=(
GEOMETRIC_REPRESENTATION_CONTEXT(3)
GLOBAL_UNCERTAINTY_ASSIGNED_CONTEXT((#277))
GLOBAL_UNIT_ASSIGNED_CONTEXT((#280,#279,#278))
REPRESENTATION_CONTEXT('Part 1','TOP_LEVEL_ASSEMBLY_PART')
);
#277=UNCERTAINTY_MEASURE_WITH_UNIT(LENGTH_MEASURE(1.E-8),#280,
'DISTANCE_ACCURACY_VALUE','Maximum Tolerance applied to model');
#278=(
NAMED_UNIT(*)
SI_UNIT($,.STERADIAN.)
SOLID_ANGLE_UNIT()
);
#279=(
NAMED_UNIT(*)
PLANE_ANGLE_UNIT()
SI_UNIT($,.RADIAN.)
);
#280=(
LENGTH_UNIT()
NAMED_UNIT(*)
SI_UNIT($,.METRE.)
);
#281=PRODUCT_DEFINITION_SHAPE('','',#282);
#282=PRODUCT_DEFINITION('','',#284,#283);
#283=PRODUCT_DEFINITION_CONTEXT('',#290,'design');
#284=PRODUCT_DEFINITION_FORMATION_WITH_SPECIFIED_SOURCE('','',#286,
 .NOT_KNOWN.);
#285=PRODUCT_RELATED_PRODUCT_CATEGORY('','',(#286));
#286=PRODUCT('Part 1','Part 1','Part 1',(#288));
#287=PRODUCT_CATEGORY('','');
#288=PRODUCT_CONTEXT('',#290,'mechanical');
#289=APPLICATION_PROTOCOL_DEFINITION('international standard',
'ap242_managed_model_based_3d_engineering',2020,#290);
#290=APPLICATION_CONTEXT('managed model based 3d engineering');
ENDSEC;
END-ISO-10303-21;
